<?xml version="1.0" encoding="UTF-8" standalone="no"?>
<svg
   xmlns:dc="http://purl.org/dc/elements/1.1/"
   xmlns:cc="http://creativecommons.org/ns#"
   xmlns:rdf="http://www.w3.org/1999/02/22-rdf-syntax-ns#"
   xmlns:svg="http://www.w3.org/2000/svg"
   xmlns="http://www.w3.org/2000/svg"
   version="1.1"
   id="svg833"
   xml:space="preserve"
   width="383.02814"
   height="383.02814"
   viewBox="0 0 383.02814 383.02814"><metadata
     id="metadata839"><rdf:RDF><cc:Work
         rdf:about=""><dc:format>image/svg+xml</dc:format><dc:type
           rdf:resource="http://purl.org/dc/dcmitype/StillImage" /><dc:title></dc:title></cc:Work></rdf:RDF></metadata><defs
     id="defs837" /><g
     id="g841"
     transform="matrix(1.3333333,0,0,-1.3333333,1.3333333,381.6948)"><path
       d="m 142.6357,285.2711 c 78.7617,0 142.6354,-63.8739 142.6354,-142.6357 C 285.2711,63.8736 221.3974,0 142.6357,0 63.8734,0 0,63.8736 0,142.6354 0,221.3972 63.8734,285.2711 142.6357,285.2711"
       style="fill:none;fill-opacity:1;fill-rule:evenodd;stroke:none"
       id="path843" /><path
       d="m 142.6357,269.8883 c 70.2674,0 127.2526,-56.9854 127.2526,-127.2529 0,-70.2675 -56.9852,-127.2526 -127.2526,-127.2526 -70.268,0 -127.2529,56.9851 -127.2529,127.2526 0,70.2675 56.9849,127.2529 127.2529,127.2529"
       style="fill:#ffffff;fill-opacity:1;fill-rule:evenodd;stroke:none"
       id="path845" /><g
       id="g847"
       transform="scale(0.45554)"
       style="stroke-width:3.11130278;stroke-miterlimit:4;stroke-dasharray:none;stroke:#787878;stroke-opacity:1"><path
         d="m 313.1144,602.1774 c 159.6175,0 289.0638,-129.4455 289.0638,-289.0639 0,-159.6177 -129.4463,-289.0638 -289.0638,-289.0638 -159.6192,0 -289.0647,129.4461 -289.0647,289.0638 0,159.6184 129.4455,289.0639 289.0647,289.0639 z"
         style="fill:#ffffff;fill-opacity:1;fill-rule:evenodd;stroke:#787878;stroke-width:3.11130278;stroke-linecap:butt;stroke-linejoin:miter;stroke-miterlimit:4;stroke-dasharray:none;stroke-opacity:1"
         id="path849" /></g><g
       id="g851"
       transform="scale(0.44022)"
       style="fill:none;fill-opacity:1;stroke-width:3.21957855;stroke-miterlimit:4;stroke-dasharray:none;stroke:#787878;stroke-opacity:1"><path
         d="m 115.3315,325.6418 c 0,115.2496 93.4251,208.6762 208.6762,208.6762 115.249,0 208.6747,-93.4266 208.6747,-208.6762 0,-115.249 -93.4257,-208.6755 -208.6747,-208.6755 -115.2511,0 -208.6762,93.4265 -208.6762,208.6755 z"
         style="fill:none;stroke:#787878;stroke-width:3.21957855;stroke-linecap:butt;stroke-linejoin:miter;stroke-miterlimit:4;stroke-dasharray:none;stroke-opacity:1;fill-opacity:1"
         id="path853" /></g><path
       d="m 39.74,153.25 c 1.2753,-0.1607 2.3267,0.0916 3.1527,0.7569 0.8272,0.6653 1.3354,1.6724 1.5248,3.0225 0.1729,1.2309 0.0056,2.2641 -0.5018,3.0975 -0.5076,0.8342 -1.2594,1.3209 -2.256,1.4609 -0.9786,0.1378 -1.8037,-0.0413 -2.4744,-0.5368 -0.671,-0.4955 -1.4417,-1.6161 -2.3117,-3.3608 -0.0754,-0.1383 -0.1791,-0.3472 -0.3115,-0.6273 -0.8671,-1.732 -1.7118,-2.9738 -2.5344,-3.7247 -0.5775,-0.5335 -1.2484,-0.9029 -2.0124,-1.1081 -0.7642,-0.2044 -1.6069,-0.2421 -2.529,-0.1128 -1.7703,0.2494 -3.0983,1.0344 -3.9833,2.3561 -0.8847,1.3216 -1.1885,2.9691 -0.9107,4.9431 0.2936,2.0886 1.095,3.6686 2.4046,4.7407 1.3099,1.0717 2.9851,1.5151 5.0258,1.3303 l -0.3943,-2.8038 c -1.3927,0.0281 -2.482,-0.2562 -3.2686,-0.8524 -0.7875,-0.5964 -1.266,-1.5015 -1.4361,-2.7147 -0.1604,-1.1407 0.0273,-2.107 0.563,-2.8981 0.5358,-0.7915 1.3289,-1.2612 2.3786,-1.4091 0.5289,-0.0743 1.0196,-0.0454 1.4711,0.0867 0.4513,0.1315 0.8354,0.3614 1.1515,0.6888 0.468,0.4839 0.9978,1.3405 1.5896,2.5702 0.1713,0.3574 0.3028,0.6273 0.3929,0.8101 1.1605,2.2947 2.2941,3.8373 3.4016,4.6262 1.1069,0.7891 2.45,1.0732 4.0297,0.8509 1.7255,-0.2426 3.0617,-1.1004 4.0094,-2.5744 0.9473,-1.4737 1.2787,-3.2241 0.9932,-5.2509 -0.2883,-2.0543 -1.0944,-3.6312 -2.4174,-4.7293 -1.3232,-1.099 -3.0016,-1.5942 -5.0352,-1.4854 z"
       style="fill:#231f20;fill-opacity:1;fill-rule:evenodd;stroke:none;stroke-width:0.75000002;stroke-miterlimit:2.61310005;stroke-dasharray:none"
       id="path855" /><path
       d="m 39.5235,172.4967 0.6551,2.1421 c 0.4416,1.4457 0.4008,2.6921 -0.1231,3.7389 -0.5241,1.0472 -1.4782,1.7819 -2.863,2.2054 -1.3935,0.426 -2.5854,0.3209 -3.5759,-0.3164 -0.9901,-0.6366 -1.7365,-1.775 -2.2374,-3.4146 l -0.5218,-1.7053 z m 8.7672,-5.6115 -20.6903,6.325 1.3493,4.4138 c 0.7273,2.3794 1.925,4.0802 3.592,5.1029 1.6674,1.0231 3.5365,1.2172 5.6084,0.5837 1.9834,-0.6061 3.397,-1.7754 4.2415,-3.5082 0.8435,-1.7325 0.9382,-3.67 0.2837,-5.8113 l -0.6874,-2.2476 7.1223,-2.1773 z"
       style="fill:#231f20;fill-opacity:1;fill-rule:evenodd;stroke:none"
       id="path861" /><g
       id="g863"
       transform="scale(0.44022)"
       style="stroke-width:1.70369365;stroke-miterlimit:2.61310005;stroke-dasharray:none;fill:none;fill-opacity:1;stroke:none"><path
         d="m 89.7806,391.839 1.4879,4.866 c 1.0032,3.2839 0.9105,6.1154 -0.2795,8.4934 -1.1905,2.3786 -3.3579,4.0476 -6.5035,5.0094 -3.1655,0.968 -5.8731,0.7291 -8.1227,-0.7186 -2.2493,-1.4462 -3.9447,-4.032 -5.0825,-7.7564 l -1.1855,-3.8738 z m 19.9154,-12.7468 -46.9996,14.3677 3.0648,10.0261 c 1.6523,5.4051 4.373,9.2685 8.1598,11.5917 3.7874,2.3239 8.0334,2.7649 12.7398,1.3258 4.5054,-1.3765 7.7165,-4.0326 9.6347,-7.969 1.9165,-3.9354 2.1313,-8.3367 0.6446,-13.2007 l -1.5614,-5.1055 16.1788,-4.9459 z"
         style="fill:none;stroke:none;stroke-width:1.70369365;stroke-linecap:butt;stroke-linejoin:miter;stroke-miterlimit:2.61310005;stroke-dasharray:none;stroke-opacity:1;fill-opacity:1"
         id="path865" /></g><path
       d="m 55.4729,191.1387 c 0.5768,1.0404 0.9346,2.0807 1.0735,3.121 0.1391,1.04 0.0589,2.0701 -0.2401,3.0897 -0.3246,1.1073 -0.8595,2.1104 -1.6059,3.009 -0.7463,0.8986 -1.6758,1.656 -2.789,2.2734 -1.1049,0.6123 -2.2342,0.9958 -3.3877,1.1503 -1.1528,0.1545 -2.2977,0.0723 -3.4341,-0.2472 -1.0355,-0.29 -1.9579,-0.7693 -2.7666,-1.4386 -0.8082,-0.6695 -1.4942,-1.5117 -2.0577,-2.5282 -0.5584,-1.0077 -0.9065,-2.035 -1.0437,-3.0815 -0.1369,-1.0463 -0.0539,-2.0753 0.25,-3.0872 0.3161,-1.1027 0.8475,-2.1033 1.5933,-3.0019 0.7464,-0.8986 1.6801,-1.6583 2.8015,-2.2799 1.1132,-0.6171 2.2482,-1.0038 3.4059,-1.1605 1.1568,-0.1571 2.2912,-0.0791 3.4027,0.233 1.0272,0.2939 1.942,0.7699 2.7439,1.4267 0.8016,0.6573 1.4868,1.4981 2.054,2.5219 z m 2.2428,-1.2115 c -0.7685,-1.3867 -1.6872,-2.5293 -2.7542,-3.4288 -1.0684,-0.8997 -2.2918,-1.557 -3.6711,-1.9726 -1.467,-0.4416 -2.9486,-0.5712 -4.445,-0.3895 -1.4967,0.1809 -2.9583,0.6673 -4.3855,1.4582 -1.4273,0.7911 -2.6161,1.7795 -3.5663,2.965 -0.9507,1.1854 -1.6274,2.5172 -2.031,3.9951 -0.3708,1.3646 -0.457,2.7403 -0.2577,4.1267 0.199,1.3862 0.6812,2.7683 1.4451,4.1468 0.7642,1.3788 1.681,2.52 2.751,3.4231 1.0698,0.9037 2.2822,1.5599 3.6366,1.9684 1.4715,0.449 2.9602,0.5828 4.4668,0.4008 1.5072,-0.1817 2.9742,-0.6681 4.4014,-1.4592 1.4272,-0.7912 2.6141,-1.7731 3.5606,-2.9464 0.947,-1.1727 1.622,-2.4981 2.0253,-3.9756 0.3788,-1.3903 0.4703,-2.7742 0.2759,-4.1527 -0.1948,-1.3779 -0.6789,-2.7646 -1.4519,-4.1593"
       style="fill:#231f20;fill-opacity:1;fill-rule:evenodd;stroke:none"
       id="path867" /><g
       id="g869"
       transform="scale(0.44022)"
       style="stroke-width:1.70369365;stroke-miterlimit:2.61310005;stroke-dasharray:none;fill:none;fill-opacity:1;stroke:none"><path
         d="m 126.0108,434.1858 c 1.3104,2.3632 2.1228,4.7265 2.4383,7.0894 0.3164,2.3627 0.1341,4.7027 -0.5454,7.0186 -0.7372,2.5152 -1.9522,4.794 -3.6476,6.8352 -1.6954,2.0412 -3.8069,3.7619 -6.3354,5.1642 -2.5101,1.3909 -5.0754,2.262 -7.6955,2.6129 -2.6186,0.351 -5.2194,0.1645 -7.8009,-0.5615 -2.3522,-0.6585 -4.4476,-1.7476 -6.2845,-3.2678 -1.836,-1.5208 -3.3942,-3.4339 -4.6743,-5.743 -1.2685,-2.2889 -2.0591,-4.6227 -2.3709,-6.9998 -0.3109,-2.3769 -0.1222,-4.7141 0.5681,-7.013 0.718,-2.5047 1.9253,-4.7778 3.6193,-6.819 1.6954,-2.0412 3.8165,-3.7669 6.3637,-5.1789 2.5288,-1.4017 5.1069,-2.2802 7.7366,-2.6362 2.628,-0.3566 5.205,-0.1797 7.7295,0.5292 2.3338,0.6679 4.4116,1.749 6.2331,3.2409 1.821,1.4933 3.3775,3.403 4.6659,5.7288 z m 5.0947,-2.7519 c -1.7459,-3.1501 -3.8327,-5.7458 -6.2564,-7.7887 -2.4267,-2.0438 -5.2061,-3.5371 -8.3392,-4.481 -3.3321,-1.0032 -6.698,-1.2977 -10.0973,-0.8847 -3.3999,0.4107 -6.7198,1.5156 -9.9618,3.3122 -3.2423,1.7969 -5.9428,4.0423 -8.1011,6.7352 -2.1597,2.6929 -3.6967,5.718 -4.6137,9.0754 -0.8422,3.0997 -1.0378,6.2246 -0.5854,9.3739 0.4522,3.1487 1.5475,6.2886 3.2828,9.4198 1.736,3.132 3.8183,5.7243 6.2493,7.776 2.4302,2.0528 5.184,3.5433 8.2607,4.4713 3.3424,1.0199 6.7244,1.3238 10.1466,0.9105 3.4237,-0.413 6.7559,-1.5179 9.9981,-3.3151 3.242,-1.7969 5.938,-4.0275 8.0881,-6.6926 2.1512,-2.664 3.6845,-5.675 4.6007,-9.0309 0.8603,-3.1583 1.0683,-6.302 0.6267,-9.4334 -0.4425,-3.13 -1.5423,-6.2799 -3.2981,-9.4479 z"
         style="fill:none;stroke:none;stroke-width:1.70369365;stroke-linecap:butt;stroke-linejoin:miter;stroke-miterlimit:2.61310005;stroke-dasharray:none;stroke-opacity:1;fill-opacity:1"
         id="path871" /></g><path
       d="m 59.1939,211.6769 1.3595,1.5091 c 1.1642,1.2943 1.7722,2.5413 1.823,3.7418 0.0496,1.2002 -0.4567,2.2785 -1.5188,3.2354 -1.0012,0.9012 -2.0747,1.2357 -3.221,1.0041 -1.1461,-0.2325 -2.3239,-1.0194 -3.5317,-2.3604 l -1.2665,-1.4074 z m 5.9531,-9.1324 -16.0784,14.4768 3.2995,3.6649 c 1.741,1.9338 3.5169,3.0453 5.3263,3.3339 1.8102,0.2891 3.4849,-0.2597 5.0258,-1.6467 1.4437,-1.3011 2.2244,-2.8199 2.3397,-4.5575 0.1154,-1.7377 -0.4694,-3.3191 -1.7543,-4.7469 l -0.1109,-0.1228 11.3548,0.0409 -2.3704,-2.632 -11.7036,0.1684 6.5474,-5.8955 z"
       style="fill:#231f20;fill-opacity:1;fill-rule:evenodd;stroke:none"
       id="path873" /><g
       id="g875"
       transform="scale(0.44022)"
       style="stroke-width:1.70369365;stroke-miterlimit:2.61310005;stroke-dasharray:none;fill:none;fill-opacity:1;stroke:none"><path
         d="m 134.4634,480.8398 3.0881,3.4282 c 2.6447,2.9401 4.0257,5.7725 4.1411,8.4997 0.1125,2.7261 -1.0375,5.1755 -3.45,7.3494 -2.2743,2.0472 -4.7129,2.8069 -7.3168,2.2808 -2.6034,-0.5279 -5.2787,-2.3154 -8.0227,-5.3618 l -2.8768,-3.1972 z m 13.5227,-20.7448 -36.5233,32.885 7.4951,8.3251 c 3.9549,4.3929 7.9892,6.9177 12.0991,7.573 4.1122,0.6568 7.9163,-0.5896 11.4165,-3.7403 3.2794,-2.9557 5.0528,-6.4057 5.315,-10.3529 0.2619,-3.947 -1.0664,-7.5394 -3.9852,-10.7828 l -0.2517,-0.2789 25.793,0.0927 -5.3842,-5.9785 -26.5858,0.3823 14.8731,-13.392 z"
         style="fill:none;stroke:none;stroke-width:1.70369365;stroke-linecap:butt;stroke-linejoin:miter;stroke-miterlimit:2.61310005;stroke-dasharray:none;stroke-opacity:1;fill-opacity:1"
         id="path877" /></g><path
       d="m 78.6937,216.6554 -12.2692,14.6216 -4.2301,-3.5501 -1.6384,1.9531 10.6081,8.9008 1.6384,-1.9525 -4.2302,-3.549 12.2692,-14.6214 z"
       style="fill:#231f20;fill-opacity:1;fill-rule:evenodd;stroke:none"
       id="path879" /><g
       id="g881"
       transform="scale(0.44022)"
       style="stroke-width:1.70369365;stroke-miterlimit:2.61310005;stroke-dasharray:none;fill:none;fill-opacity:1;stroke:none"><path
         d="m 178.7587,492.1489 -27.8705,33.2141 -9.6089,-8.0643 -3.7219,4.4365 24.0971,20.2187 3.7218,-4.4351 -9.6091,-8.0617 27.8705,-33.2138 z"
         style="fill:none;stroke:none;stroke-width:1.70369365;stroke-linecap:butt;stroke-linejoin:miter;stroke-miterlimit:2.61310005;stroke-dasharray:none;stroke-opacity:1;fill-opacity:1"
         id="path883" /></g><path
       d="m 91.836,246.0101 c -1.0077,0.3149 -2.0441,0.4071 -3.1088,0.275 -1.0649,-0.1321 -2.1095,-0.4816 -3.1337,-1.0494 -1.0071,-0.5587 -1.8377,-1.2373 -2.4905,-2.0373 -0.6531,-0.7996 -1.1199,-1.7147 -1.4023,-2.7459 -0.3058,-1.1401 -0.3812,-2.2833 -0.2248,-3.4305 0.1562,-1.1472 0.54,-2.2728 1.1529,-3.378 0.6171,-1.1132 1.3708,-2.0396 2.2606,-2.78 0.8895,-0.7404 1.897,-1.2787 3.0215,-1.6146 1.0193,-0.2993 2.0409,-0.3844 3.0654,-0.2545 1.0241,0.1304 2.0395,0.4745 3.0478,1.0338 1.959,1.0853 3.2663,2.5585 3.9208,4.4197 0.6551,1.8613 0.5769,3.8747 -0.2344,6.0418 l -6.7615,-3.7482 -1.2498,2.2538 9.3379,5.1758 0.3022,-0.5454 c 0.6211,-1.1206 1.0868,-2.2116 1.3958,-3.2735 0.309,-1.0618 0.4521,-2.0846 0.428,-3.0673 -0.0246,-2.0481 -0.5286,-3.8716 -1.5131,-5.4709 -0.9839,-1.5996 -2.4234,-2.9248 -4.3177,-3.975 -1.3783,-0.764 -2.7678,-1.247 -4.1684,-1.4488 -1.4003,-0.2018 -2.7765,-0.1191 -4.1295,0.2486 -1.4777,0.4036 -2.8046,1.0808 -3.979,2.031 -1.1755,0.951 -2.1611,2.1444 -2.9565,3.5796 -0.7952,1.4352 -1.2858,2.9052 -1.4718,4.4093 -0.1862,1.5046 -0.0558,2.9866 0.3892,4.4456 0.4042,1.3623 1.0596,2.5761 1.9647,3.6422 0.906,1.0658 2.056,1.9854 3.4506,2.7584 1.3624,0.7554 2.738,1.2353 4.1264,1.4403 1.3879,0.2052 2.7462,0.1264 4.0745,-0.2353 z"
       style="fill:#231f20;fill-opacity:1;fill-rule:evenodd;stroke:none"
       id="path885" /><g
       id="g887"
       transform="scale(0.44022)"
       style="stroke-width:1.70369365;stroke-miterlimit:2.61310005;stroke-dasharray:none;fill:none;fill-opacity:1;stroke:none"><path
         d="m 208.6123,558.8303 c -2.2892,0.7154 -4.6431,0.9246 -7.0619,0.6244 -2.4191,-0.2999 -4.792,-1.0938 -7.1184,-2.3836 -2.2878,-1.2691 -4.1743,-2.8106 -5.6574,-4.6279 -1.4836,-1.8164 -2.544,-3.895 -3.1852,-6.2376 -0.6948,-2.5897 -0.8663,-5.1865 -0.5108,-7.7924 0.3548,-2.6059 1.2268,-5.1631 2.6189,-7.6734 1.4017,-2.5288 3.1138,-4.633 5.1352,-6.315 2.0206,-1.6818 4.309,-2.9047 6.8633,-3.6678 2.3156,-0.6797 4.6363,-0.8731 6.9633,-0.5783 2.3264,0.2963 4.6329,1.0781 6.9233,2.3485 4.4501,2.4656 7.4197,5.8119 8.9068,10.0398 1.4879,4.2279 1.3101,8.8016 -0.5327,13.7245 l -15.3592,-8.5144 -2.8389,5.1196 21.2116,11.7573 0.6863,-1.239 c 1.4108,-2.5453 2.469,-5.0239 3.1708,-7.4359 0.7019,-2.412 1.027,-4.7353 0.9723,-6.9678 -0.0561,-4.6522 -1.201,-8.7945 -3.4373,-12.4274 -2.2351,-3.6337 -5.5049,-6.6438 -9.8081,-9.0295 -3.1306,-1.7353 -6.287,-2.8326 -9.4686,-3.291 -3.181,-0.4586 -6.3071,-0.2707 -9.3804,0.5647 -3.3568,0.9167 -6.3709,2.455 -9.0386,4.6136 -2.6705,2.1603 -4.9093,4.8711 -6.7161,8.1312 -1.8062,3.2601 -2.9208,6.5994 -3.3432,10.016 -0.4229,3.418 -0.1267,6.7844 0.8842,10.0984 0.9181,3.0948 2.4069,5.8518 4.4628,8.2737 2.058,2.4211 4.6704,4.51 7.8384,6.266 3.0946,1.7158 6.2195,2.806 9.3733,3.2715 3.1527,0.4663 6.2382,0.2874 9.2557,-0.5343 z"
         style="fill:none;stroke:none;stroke-width:1.70369365;stroke-linecap:butt;stroke-linejoin:miter;stroke-miterlimit:2.61310005;stroke-dasharray:none;stroke-opacity:1;fill-opacity:1"
         id="path889" /></g><path
       d="m 107.6791,234.2835 -6.6855,20.5758 10.6917,3.4741 0.7875,-2.4236 -8.0257,-2.6076 2.0916,-6.4369 8.0261,2.6079 0.7696,-2.3701 -8.0258,-2.6081 2.249,-6.9214 8.0263,2.6079 0.7875,-2.4239 z"
       style="fill:#231f20;fill-opacity:1;fill-rule:evenodd;stroke:none"
       id="path891" /><g
       id="g893"
       transform="scale(0.44022)"
       style="stroke-width:1.70369365;stroke-miterlimit:2.61310005;stroke-dasharray:none;fill:none;fill-opacity:1;stroke:none"><path
         d="m 244.601,532.1923 -15.1866,46.7396 24.2872,7.8916 1.7887,-5.5054 -18.231,-5.9233 4.7514,-14.6219 18.2316,5.9241 1.7484,-5.3839 -18.2313,-5.9247 5.1089,-15.7223 18.2324,5.9241 1.7887,-5.506 z"
         style="fill:none;stroke:none;stroke-width:1.70369365;stroke-linecap:butt;stroke-linejoin:miter;stroke-miterlimit:2.61310005;stroke-dasharray:none;stroke-opacity:1;fill-opacity:1"
         id="path895" /></g><path
       d="m 122.4445,239.1406 -1.8865,21.5535 2.7658,0.2421 9.5525,-14.6514 c 0.1599,-0.2458 0.2962,-0.5091 0.409,-0.7903 0.1123,-0.2812 0.207,-0.5947 0.2829,-0.9394 -3e-4,0.3234 0.0278,0.6355 0.0851,0.9371 0.0564,0.3013 0.1465,0.5956 0.2695,0.8836 l 6.8358,16.0857 2.8482,0.2492 1.8854,-21.5532 -2.8208,-0.2469 -1.0874,14.6568 c -0.0258,0.294 -0.0309,0.6985 -0.015,1.2127 0.015,0.515 0.0559,1.1361 0.1225,1.8637 -0.1296,-0.5388 -0.2722,-1.0533 -0.4289,-1.5431 -0.1559,-0.4901 -0.3257,-0.9613 -0.5088,-1.412 l -6.7505,-15.7864 -9.6446,14.7546 c -0.3208,0.4992 -0.5703,0.9125 -0.7463,1.2393 -0.1766,0.3269 -0.324,0.6378 -0.4425,0.9326 0.1672,-0.4294 0.3027,-0.8456 0.407,-1.2478 0.1049,-0.4028 0.1735,-0.7926 0.2067,-1.1684 l 1.453,-15.0271 z"
       style="fill:#231f20;fill-opacity:1;fill-rule:evenodd;stroke:none"
       id="path897" /><g
       id="g899"
       transform="scale(0.44022)"
       style="stroke-width:1.70369365;stroke-miterlimit:2.61310005;stroke-dasharray:none;fill:none;fill-opacity:1;stroke:none"><path
         d="m 278.1417,543.2258 -4.2852,48.9603 6.2827,0.5499 21.6993,-33.2818 c 0.3631,-0.5582 0.6726,-1.1566 0.9292,-1.7952 0.2548,-0.6387 0.4699,-1.351 0.6426,-2.1339 -9e-4,0.7347 0.0629,1.4437 0.193,2.1288 0.1281,0.6846 0.3328,1.3527 0.6123,2.0069 l 15.5279,36.54 6.4701,0.5661 4.2826,-48.9597 -6.4075,-0.561 -2.4701,33.2941 c -0.0587,0.6678 -0.07,1.5868 -0.034,2.7547 0.034,1.1701 0.1267,2.5809 0.2781,4.2338 -0.2943,-1.224 -0.6183,-2.3927 -0.9743,-3.5056 -0.354,-1.1132 -0.7398,-2.1835 -1.1557,-3.2071 L 304.3984,544.9558 282.49,578.4721 c -0.7288,1.1339 -1.2954,2.0727 -1.6954,2.8151 -0.4011,0.7427 -0.7359,1.4488 -1.0052,2.1186 0.3802,-0.9757 0.6877,-1.9208 0.9247,-2.8347 0.2384,-0.9147 0.3943,-1.8002 0.4694,-2.654 l 3.3007,-34.1351 z"
         style="fill:none;stroke:none;stroke-width:1.70369365;stroke-linecap:butt;stroke-linejoin:miter;stroke-miterlimit:2.61310005;stroke-dasharray:none;stroke-opacity:1;fill-opacity:1"
         id="path901" /></g><path
       d="m 149.8833,240.4012 3.0113,21.4248 11.1327,-1.5647 -0.3543,-2.5243 -8.3568,1.175 -0.942,-6.7022 8.3569,-1.1747 -0.347,-2.4679 -8.3568,1.1747 -1.0128,-7.2071 8.3568,-1.1744 -0.3549,-2.5239 z"
       style="fill:#231f20;fill-opacity:1;fill-rule:evenodd;stroke:none"
       id="path903" /><g
       id="g905"
       transform="scale(0.44022)"
       style="stroke-width:1.70369365;stroke-miterlimit:2.61310005;stroke-dasharray:none;fill:none;fill-opacity:1;stroke:none"><path
         d="m 340.471,546.0891 6.8403,48.668 25.289,-3.5543 -0.8048,-5.7339 -18.9833,2.6691 -2.1396,-15.2246 18.9831,-2.6686 -0.7881,-5.6058 -18.9833,2.6683 -2.3006,-16.3715 18.983,-2.6677 -0.8061,-5.7334 z"
         style="fill:none;stroke:none;stroke-width:1.70369365;stroke-linecap:butt;stroke-linejoin:miter;stroke-miterlimit:2.61310005;stroke-dasharray:none;stroke-opacity:1;fill-opacity:1"
         id="path907" /></g><path
       d="m 164.4236,237.9518 5.2348,20.9922 2.7201,-0.6777 -5.2342,-20.9931 z"
       style="fill:#231f20;fill-opacity:1;fill-rule:evenodd;stroke:none"
       id="path909" /><g
       id="g911"
       transform="scale(0.44022)"
       style="stroke-width:1.70369365;stroke-miterlimit:2.61310005;stroke-dasharray:none;fill:none;fill-opacity:1;stroke:none"><path
         d="m 373.5006,540.5253 11.891,47.6852 6.179,-1.5395 -11.8899,-47.6872 z"
         style="fill:none;stroke:none;stroke-width:1.70369365;stroke-linecap:butt;stroke-linejoin:miter;stroke-miterlimit:2.61310005;stroke-dasharray:none;stroke-opacity:1;fill-opacity:1"
         id="path913" /></g><path
       d="m 170.9909,236.5659 8.1054,20.06 2.4489,-0.989 4.1272,-17.8005 c 0.121,-0.4864 0.212,-1.0003 0.2716,-1.5412 0.0595,-0.5408 0.0907,-1.1151 0.0938,-1.7232 0.0831,0.6724 0.1905,1.2949 0.3226,1.8675 0.1326,0.5732 0.2866,1.0777 0.4623,1.5131 l 5.4014,13.3696 2.5472,-1.0292 -8.1051,-20.0602 -2.1279,0.8597 -4.3146,18.5922 c -0.1585,0.6896 -0.2566,1.2387 -0.296,1.6475 -0.0388,0.4087 -0.0422,0.8107 -0.0116,1.2052 -0.1349,-0.7508 -0.2886,-1.4365 -0.4598,-2.0582 -0.172,-0.6216 -0.3631,-1.1925 -0.5734,-1.7138 l -5.3445,-13.2287 z"
       style="fill:#231f20;fill-opacity:1;fill-rule:evenodd;stroke:none"
       id="path915" /><g
       id="g917"
       transform="scale(0.44022)"
       style="stroke-width:1.70369365;stroke-miterlimit:2.61310005;stroke-dasharray:none;fill:none;fill-opacity:1;stroke:none"><path
         d="m 388.4187,537.3771 18.4119,45.5675 5.5627,-2.2465 9.3753,-40.435 c 0.275,-1.105 0.4816,-2.2723 0.6168,-3.5008 0.1353,-1.2289 0.2061,-2.5334 0.2132,-3.9144 0.1888,1.5273 0.4329,2.9412 0.7328,4.2421 0.3013,1.3019 0.6511,2.448 1.0502,3.437 l 12.2698,30.3701 5.786,-2.338 -18.4113,-45.5684 -4.8336,1.9531 -9.8011,42.2334 c -0.36,1.5667 -0.5828,2.8139 -0.6723,3.7425 -0.0882,0.9284 -0.0959,1.8414 -0.0264,2.738 -0.3064,-1.7059 -0.6554,-3.2635 -1.0443,-4.6754 -0.3909,-1.4123 -0.8249,-2.7091 -1.3028,-3.8931 l -12.1402,-30.0501 z"
         style="fill:none;stroke:none;stroke-width:1.70369365;stroke-linecap:butt;stroke-linejoin:miter;stroke-miterlimit:2.61310005;stroke-dasharray:none;stroke-opacity:1;fill-opacity:1"
         id="path919" /></g><path
       d="m 194.9817,232.3301 c -0.684,-1.0882 -0.9003,-2.1475 -0.6466,-3.1779 0.2534,-1.0301 0.9521,-1.9165 2.0948,-2.6592 1.0431,-0.6769 2.0494,-0.9618 3.0195,-0.8544 0.9703,0.108 1.7297,0.5834 2.2779,1.4276 0.5383,0.8291 0.7245,1.6517 0.559,2.4695 -0.1656,0.8181 -0.8552,1.9897 -2.0688,3.5153 -0.0941,0.1264 -0.2398,0.3092 -0.4371,0.5473 -1.203,1.518 -1.9717,2.8086 -2.3048,3.871 -0.2395,0.7492 -0.2911,1.5134 -0.1534,2.2927 0.1369,0.7781 0.4592,1.5582 0.9664,2.3397 0.974,1.4995 2.247,2.3712 3.8185,2.6141 1.5718,0.2429 3.1935,-0.178 4.8648,-1.2631 1.7694,-1.1489 2.8625,-2.5435 3.2803,-4.1828 0.4178,-1.6404 0.1117,-3.3457 -0.9179,-5.1174 l -2.3748,1.5423 c 0.6139,1.2501 0.8163,2.3576 0.6091,3.3225 -0.2086,0.9655 -0.8263,1.7819 -1.8538,2.4492 -0.9658,0.6267 -1.9211,0.8654 -2.8647,0.714 -0.9437,-0.1505 -1.7045,-0.671 -2.2816,-1.5602 -0.2909,-0.4481 -0.4723,-0.9051 -0.5437,-1.37 -0.0712,-0.4649 -0.025,-0.9099 0.1386,-1.3342 0.2401,-0.6288 0.7926,-1.4712 1.6566,-2.5271 0.252,-0.3062 0.4416,-0.5395 0.568,-0.699 1.5897,-2.0214 2.5078,-3.7004 2.7559,-5.0375 0.2474,-1.3368 -0.0635,-2.6742 -0.9318,-4.0122 -0.9493,-1.4609 -2.2915,-2.3099 -4.0274,-2.5452 -1.7363,-0.2361 -3.4623,0.2038 -5.1798,1.3184 -1.739,1.1296 -2.8275,2.5265 -3.2646,4.1905 -0.4363,1.6633 -0.1755,3.3933 0.7823,5.1908 z"
       style="fill:#231f20;fill-opacity:1;fill-rule:evenodd;stroke:none"
       id="path921" /><g
       id="g923"
       transform="scale(0.44022)"
       style="stroke-width:1.70369365;stroke-miterlimit:2.61310005;stroke-dasharray:none;fill:none;fill-opacity:1;stroke:none"><path
         d="m 442.9154,527.7552 c -1.5537,-2.4721 -2.0452,-4.8784 -1.4687,-7.219 0.5755,-2.34 2.1629,-4.3535 4.7583,-6.0404 2.3697,-1.5378 4.6556,-2.1849 6.859,-1.9408 2.2042,0.2452 3.9291,1.3252 5.1746,3.2428 1.2226,1.8833 1.6458,3.7519 1.2697,5.6098 -0.3759,1.8581 -1.9426,4.5195 -4.6993,7.9849 -0.2138,0.2874 -0.5448,0.7027 -0.993,1.2435 -2.7326,3.4481 -4.479,6.38 -5.2356,8.7931 -0.544,1.7019 -0.6613,3.4379 -0.3484,5.2081 0.3113,1.7674 1.0432,3.5396 2.1952,5.315 2.2124,3.4061 5.1043,5.3861 8.6743,5.938 3.5702,0.5519 7.2541,-0.4045 11.0506,-2.8693 4.0192,-2.6098 6.5024,-5.7778 7.4514,-9.5017 0.949,-3.7261 0.2537,-7.6 -2.0849,-11.6243 l -5.3949,3.5033 c 1.3949,2.8398 1.8544,5.3555 1.3839,7.5476 -0.474,2.1928 -1.8771,4.0476 -4.2112,5.5632 -2.1937,1.4236 -4.3639,1.9659 -6.5075,1.622 -2.1435,-0.3418 -3.8718,-1.5242 -5.1828,-3.5441 -0.6605,-1.018 -1.0727,-2.056 -1.2348,-3.1119 -0.1619,-1.0562 -0.0567,-2.067 0.3147,-3.0311 0.5453,-1.4281 1.8005,-3.3418 3.7629,-5.7404 0.5726,-0.6954 1.0035,-1.2252 1.2907,-1.5877 3.611,-4.5919 5.6965,-8.4056 6.26,-11.4429 0.5621,-3.0368 -0.1443,-6.0749 -2.1166,-9.114 -2.1564,-3.3188 -5.2053,-5.2472 -9.1486,-5.7818 -3.9441,-0.5363 -7.8647,0.4629 -11.7663,2.9948 -3.9504,2.5662 -6.423,5.7393 -7.4157,9.519 -0.991,3.7786 -0.3989,7.7083 1.777,11.7913 z"
         style="fill:none;stroke:none;stroke-width:1.70369365;stroke-linecap:butt;stroke-linejoin:miter;stroke-miterlimit:2.61310005;stroke-dasharray:none;stroke-opacity:1;fill-opacity:1"
         id="path925" /></g><path
       d="m 225.9677,221.5086 c -0.0581,1.1004 -0.3103,2.1143 -0.7568,3.0418 -0.4467,0.927 -1.0882,1.7802 -1.9247,2.5606 -0.8496,0.7917 -1.7603,1.3796 -2.7329,1.7634 -0.9723,0.383 -1.9996,0.5559 -3.0816,0.5185 -1.1656,-0.0471 -2.2702,-0.3226 -3.3131,-0.8255 -1.0423,-0.5031 -2.0007,-1.2234 -2.8755,-2.1611 -0.8676,-0.9306 -1.5159,-1.9338 -1.9448,-3.0084 -0.4292,-1.0755 -0.6296,-2.1997 -0.6024,-3.3733 0.0304,-1.0491 0.2724,-2.0503 0.7266,-3.0033 0.4541,-0.953 1.1089,-1.8286 1.9661,-2.6271 0.9031,-0.8428 1.8572,-1.4551 2.8627,-1.8377 1.0049,-0.3821 2.0469,-0.5219 3.1263,-0.419 l -0.0119,-2.7504 c -1.4321,-0.0216 -2.789,0.2293 -4.072,0.7526 -1.2824,0.5246 -2.497,1.3212 -3.6433,2.3898 -1.1529,1.0749 -2.0421,2.2471 -2.6683,3.5153 -0.6259,1.2688 -0.9745,2.6022 -1.0448,3.9997 -0.0729,1.531 0.1615,3.0021 0.703,4.4144 0.5414,1.4113 1.3719,2.7178 2.4919,3.9189 1.1197,1.2004 2.3664,2.1217 3.7403,2.7637 1.374,0.6424 2.8236,0.9769 4.3498,1.0049 1.4207,0.0366 2.7779,-0.2112 4.0722,-0.7427 1.294,-0.532 2.5246,-1.3416 3.6907,-2.4298 1.1194,-1.0434 1.9848,-2.1665 2.5971,-3.3687 0.6126,-1.2022 0.9678,-2.4806 1.0664,-3.8347 z"
       style="fill:#231f20;fill-opacity:1;fill-rule:evenodd;stroke:none"
       id="path927" /><g
       id="g929"
       transform="scale(0.44022)"
       style="stroke-width:1.70369365;stroke-miterlimit:2.61310005;stroke-dasharray:none;fill:none;fill-opacity:1;stroke:none"><path
         d="m 513.3025,503.1731 c -0.1319,2.4996 -0.705,4.8031 -1.7193,6.9098 -1.0148,2.1055 -2.4718,4.0439 -4.3721,5.8167 -1.9298,1.7983 -3.9986,3.1337 -6.2079,4.0056 -2.2087,0.8699 -4.5422,1.2628 -6.9999,1.1778 -2.6478,-0.1069 -5.157,-0.7328 -7.5259,-1.8751 -2.3678,-1.143 -4.5448,-2.7791 -6.5319,-4.9093 -1.9712,-2.1138 -3.4438,-4.3926 -4.4181,-6.8338 -0.9748,-2.4429 -1.4301,-4.9966 -1.3683,-7.6626 0.0689,-2.3831 0.6188,-4.6573 1.6503,-6.8222 1.0316,-2.1648 2.5192,-4.1539 4.4663,-5.9677 2.0514,-1.9143 4.2188,-3.3052 6.503,-4.1743 2.2824,-0.868 4.6496,-1.1855 7.1016,-0.9519 l -0.0272,-6.2479 c -3.253,-0.049 -6.3354,0.521 -9.2497,1.7096 -2.9129,1.192 -5.6722,3.0013 -8.2761,5.4289 -2.6189,2.4418 -4.6389,5.1044 -6.0613,7.9852 -1.4216,2.882 -2.2136,5.9111 -2.3734,9.0856 -0.1653,3.4776 0.3671,6.8196 1.597,10.0276 1.23,3.206 3.1164,6.1738 5.6605,8.9019 2.5435,2.7269 5.3753,4.8198 8.4966,6.2782 3.1209,1.459 6.4139,2.2189 9.8807,2.2827 3.2272,0.0831 6.3102,-0.4796 9.2503,-1.6872 2.9395,-1.2084 5.7348,-3.0475 8.3837,-5.5196 2.543,-2.37 4.5088,-4.9212 5.8995,-7.6521 1.3915,-2.7309 2.1986,-5.635 2.4225,-8.7109 z"
         style="fill:none;stroke:none;stroke-width:1.70369365;stroke-linecap:butt;stroke-linejoin:miter;stroke-miterlimit:2.61310005;stroke-dasharray:none;stroke-opacity:1;fill-opacity:1"
         id="path931" /></g><path
       d="m 217.3014,205.2615 17.7225,12.4092 1.6086,-2.2963 -7.5393,-5.2787 6.5138,-9.3027 7.5387,5.2795 1.6081,-2.2966 -17.7231,-12.4098 -1.6081,2.2966 8.0961,5.6687 -6.5129,9.3019 -8.0966,-5.6684 z"
       style="fill:#231f20;fill-opacity:1;fill-rule:evenodd;stroke:none"
       id="path933" /><g
       id="g935"
       transform="scale(0.44022)"
       style="stroke-width:1.70369365;stroke-miterlimit:2.61310005;stroke-dasharray:none;fill:none;fill-opacity:1;stroke:none"><path
         d="m 493.6161,466.2669 40.2582,28.1883 3.6542,-5.2163 -17.1261,-11.9909 14.7963,-21.1317 17.1249,11.9928 3.6527,-5.2171 -40.259,-28.1897 -3.653,5.2168 18.3909,12.877 -14.7946,21.13 -18.392,-12.8764 z"
         style="fill:none;stroke:none;stroke-width:1.70369365;stroke-linecap:butt;stroke-linejoin:miter;stroke-miterlimit:2.61310005;stroke-dasharray:none;stroke-opacity:1;fill-opacity:1"
         id="path937" /></g><path
       d="m 237.2176,186.906 3.0552,-7.5611 6.789,6.4103 c 0.0992,0.0995 0.2959,0.271 0.5899,0.5142 0.2945,0.2432 0.6372,0.523 1.0258,0.839 -0.4878,-0.0476 -0.9227,-0.0844 -1.3053,-0.1094 -0.3827,-0.0258 -0.648,-0.0382 -0.7969,-0.0394 z m -9.2268,2.6527 23.3949,-0.074 0.8805,-2.1784 -16.6692,-16.5736 -1.2319,3.0504 3.9271,3.6589 -3.8052,9.4193 -5.3722,-0.0837 z"
       style="fill:#231f20;fill-opacity:1;fill-rule:evenodd;stroke:none"
       id="path939" /><g
       id="g941"
       transform="scale(0.44022)"
       style="stroke-width:1.70369365;stroke-miterlimit:2.61310005;stroke-dasharray:none;fill:none;fill-opacity:1;stroke:none"><path
         d="m 538.8574,424.571 6.94,-17.1757 15.4219,14.5616 c 0.2254,0.2259 0.6721,0.6154 1.3399,1.1678 0.669,0.5525 1.4474,1.188 2.3304,1.906 -1.1083,-0.1082 -2.0959,-0.1919 -2.9653,-0.2486 -0.8694,-0.0586 -1.472,-0.0867 -1.8099,-0.0895 z m -20.9591,6.0256 53.1431,-0.1678 2.0001,-4.9485 -37.8652,-37.6483 -2.7987,6.9293 8.921,8.3114 -8.644,21.3965 -12.2035,-0.1899 z"
         style="fill:none;stroke:none;stroke-width:1.70369365;stroke-linecap:butt;stroke-linejoin:miter;stroke-miterlimit:2.61310005;stroke-dasharray:none;stroke-opacity:1;fill-opacity:1"
         id="path943" /></g><path
       d="m 235.6668,169.0228 21.1626,4.4983 2.3377,-10.9964 -2.4931,-0.5295 -1.7546,8.2542 -6.62,-1.4071 1.7543,-8.2551 -2.4375,-0.5182 -1.7543,8.2548 -9.6118,-2.0432 z"
       style="fill:#231f20;fill-opacity:1;fill-rule:evenodd;stroke:none"
       id="path945" /><g
       id="g947"
       transform="scale(0.44022)"
       style="stroke-width:1.70369365;stroke-miterlimit:2.61310005;stroke-dasharray:none;fill:none;fill-opacity:1;stroke:none"><path
         d="m 535.3347,383.9479 48.0722,10.2184 5.3105,-24.9795 -5.6631,-1.2027 -3.9858,18.75 -15.0381,-3.1963 3.9853,-18.7521 -5.537,-1.1769 -3.9852,18.7512 -21.8338,-4.6412 z"
         style="fill:none;stroke:none;stroke-width:1.70369365;stroke-linecap:butt;stroke-linejoin:miter;stroke-miterlimit:2.61310005;stroke-dasharray:none;stroke-opacity:1;fill-opacity:1"
         id="path949" /></g><path
       d="m 238.6154,151.5438 19.04,1.3318 -0.3855,5.508 2.5427,0.1783 0.9657,-13.8144 -2.5421,-0.1772 -0.3852,5.508 -19.0406,-1.3314 z"
       style="fill:#231f20;fill-opacity:1;fill-rule:evenodd;stroke:none"
       id="path951" /><g
       id="g953"
       transform="scale(0.44022)"
       style="stroke-width:1.70369365;stroke-miterlimit:2.61310005;stroke-dasharray:none;fill:none;fill-opacity:1;stroke:none"><path
         d="m 542.0324,344.2431 43.2511,3.0251 -0.8759,12.5118 5.7758,0.4051 2.194,-31.3804 -5.7747,-0.4025 -0.875,12.5118 -43.2522,-3.0242 z"
         style="fill:none;stroke:none;stroke-width:1.70369365;stroke-linecap:butt;stroke-linejoin:miter;stroke-miterlimit:2.61310005;stroke-dasharray:none;stroke-opacity:1;fill-opacity:1"
         id="path955" /></g><path
       d="m 49.3197,70.7 17.2789,13.0207 2.211,-2.9344 c 0.8555,-1.135 1.4743,-2.0747 1.8575,-2.8202 0.3824,-0.7455 0.6092,-1.4329 0.6792,-2.0619 0.1188,-1.0769 -0.0124,-2.0625 -0.3946,-2.9569 -0.3815,-0.8946 -0.996,-1.6602 -1.8422,-2.2986 -0.699,-0.5264 -1.4749,-0.8302 -2.3261,-0.9099 -0.8515,-0.0797 -1.709,0.0706 -2.5727,0.4504 0.4569,-1.3419 0.5221,-2.5727 0.1942,-3.6918 -0.328,-1.1194 -1.0404,-2.092 -2.1368,-2.9186 -1.3618,-1.0261 -2.9118,-1.3541 -4.6505,-0.9844 -1.7388,0.3702 -3.2105,1.3546 -4.4147,2.9525 z m 11.5254,5.1747 1.3975,-1.8547 c 0.7764,-1.0301 1.616,-1.6464 2.5183,-1.8491 0.9025,-0.2024 1.7875,0.0236 2.6555,0.6772 0.9122,0.6877 1.3867,1.4896 1.4227,2.4049 0.0366,0.9165 -0.3688,1.9375 -1.2175,3.0634 l -1.2807,1.7 z m -7.8026,-5.8802 1.7217,-2.2847 c 0.9717,-1.2892 1.9551,-2.0818 2.95,-2.3777 0.9953,-0.2954 1.9747,-0.08 2.9379,0.6454 0.9484,0.7155 1.4227,1.5809 1.4235,2.598 0,1.0168 -0.4773,2.1588 -1.4326,3.4262 l -1.7884,2.3732 z"
       style="fill:#231f20;fill-opacity:1;fill-rule:evenodd;stroke:none"
       id="path957" /><g
       id="g959"
       transform="scale(0.44022)"
       style="stroke-width:1.70369365;stroke-miterlimit:2.61310005;stroke-dasharray:none;fill:none;fill-opacity:1;stroke:none"><path
         d="m 112.0334,160.6003 39.2502,29.5775 5.0224,-6.6657 c 1.9435,-2.5784 3.3492,-4.7129 4.2197,-6.4063 0.8685,-1.6937 1.3839,-3.255 1.5429,-4.6839 0.2696,-2.4461 -0.0283,-4.6851 -0.8963,-6.7167 -0.8669,-2.0322 -2.2629,-3.7712 -4.1848,-5.2215 -1.588,-1.1956 -3.3503,-1.8858 -5.2841,-2.0667 -1.9343,-0.1811 -3.882,0.1602 -5.8442,1.023 1.0381,-3.0483 1.1863,-5.8442 0.4411,-8.3863 -0.7449,-2.5426 -2.3629,-4.752 -4.8537,-6.6296 -3.0932,-2.331 -6.6141,-3.0759 -10.5639,-2.2363 -3.9498,0.8408 -7.293,3.0773 -10.0284,6.7071 z m 26.1808,11.7547 3.1745,-4.2132 c 1.7637,-2.34 3.6709,-3.7397 5.7203,-4.2001 2.0503,-0.4597 4.0607,0.0533 6.0324,1.5381 2.0719,1.5622 3.1499,3.384 3.2318,5.4629 0.0831,2.0818 -0.8379,4.4014 -2.7657,6.9588 l -2.9092,3.8616 z m -17.7242,-13.3572 3.911,-5.1899 c 2.2073,-2.9288 4.441,-4.7291 6.7011,-5.4012 2.2609,-0.6709 4.4855,-0.1817 6.6736,1.4661 2.1546,1.6251 3.2318,3.5912 3.2337,5.9015 0,2.3096 -1.0845,4.9039 -3.2544,7.7831 l -4.0623,5.3906 z"
         style="fill:none;stroke:none;stroke-width:1.70369365;stroke-linecap:butt;stroke-linejoin:miter;stroke-miterlimit:2.61310005;stroke-dasharray:none;stroke-opacity:1;fill-opacity:1"
         id="path961" /></g><path
       d="m 63.3197,53.8435 14.4772,16.0784 8.3545,-7.5226 -1.7053,-1.8941 -6.272,5.6466 -4.5286,-5.0298 6.2714,-5.6466 -1.6671,-1.8521 -6.2719,5.6472 -4.8696,-5.4091 6.2713,-5.6463 -1.7047,-1.8942 z"
       style="fill:#231f20;fill-opacity:1;fill-rule:evenodd;stroke:none"
       id="path963" /><g
       id="g965"
       transform="scale(0.44022)"
       style="stroke-width:1.70369365;stroke-miterlimit:2.61310005;stroke-dasharray:none;fill:none;fill-opacity:1;stroke:none"><path
         d="m 143.8356,122.3096 32.8858,36.5233 18.978,-17.0881 -3.8738,-4.3028 -14.2472,12.8268 -10.2873,-11.4256 14.2461,-12.8268 -3.7868,-4.2071 -14.2472,12.8279 -11.0619,-12.2871 14.2461,-12.8259 -3.8727,-4.3027 z"
         style="fill:none;stroke:none;stroke-width:1.70369365;stroke-linecap:butt;stroke-linejoin:miter;stroke-miterlimit:2.61310005;stroke-dasharray:none;stroke-opacity:1;fill-opacity:1"
         id="path967" /></g><path
       d="m 86.7679,48.4883 1.7224,-1.076 c 1.4765,-0.9227 2.81,-1.3045 4.0014,-1.1458 1.1902,0.1593 2.1648,0.845 2.9225,2.0574 0.7135,1.1421 0.8566,2.2575 0.4289,3.3463 -0.4275,1.0885 -1.4066,2.1115 -2.9379,3.0682 L 91.3,55.7413 Z m -7.9602,-7.448 11.4653,18.3481 4.1822,-2.6133 c 2.2065,-1.379 3.6097,-2.9347 4.2078,-4.6664 0.5992,-1.7322 0.3492,-3.4772 -0.7492,-5.235 -1.0301,-1.6486 -2.3905,-2.6804 -4.0814,-3.0957 -1.6911,-0.4153 -3.3514,-0.1145 -4.9793,0.9034 l -0.1409,0.0879 2.0123,-11.1756 -3.0036,1.8771 -1.8663,11.5557 -4.6689,-7.4719 z"
       style="fill:#231f20;fill-opacity:1;fill-rule:evenodd;stroke:none"
       id="path969" /><g
       id="g971"
       transform="scale(0.44022)"
       style="stroke-width:1.70369365;stroke-miterlimit:2.61310005;stroke-dasharray:none;fill:none;fill-opacity:1;stroke:none"><path
         d="m 197.0997,110.1447 3.9124,-2.444 c 3.3542,-2.096 6.3833,-2.9634 9.0896,-2.6028 2.7037,0.3617 4.9175,1.9193 6.6387,4.6735 1.6206,2.5942 1.946,5.1281 0.9743,7.6014 -0.9712,2.4726 -3.1952,4.7965 -6.6736,6.9695 l -3.6465,2.2782 z m -18.0822,-16.9186 26.0442,41.6789 9.5003,-5.936 c 5.0122,-3.1328 8.1995,-6.6665 9.5581,-10.6001 1.3615,-3.9351 0.7934,-7.8988 -1.7016,-11.8917 -2.34,-3.7451 -5.4303,-6.0888 -9.271,-7.0322 -3.8418,-0.9433 -7.613,-0.2602 -11.3111,2.052 l -0.32,0.1996 4.5711,-25.386 -6.823,4.2639 -4.2395,26.2497 -10.6058,-16.973 z"
         style="fill:none;stroke:none;stroke-width:1.70369365;stroke-linecap:butt;stroke-linejoin:miter;stroke-miterlimit:2.61310005;stroke-dasharray:none;stroke-opacity:1;fill-opacity:1"
         id="path973" /></g><path
       d="m 97.5322,30.6346 8.1048,20.0599 2.5994,-1.0502 -7.1178,-17.6179 6.9052,-2.7901 -0.9864,-2.4421 z"
       style="fill:#231f20;fill-opacity:1;fill-rule:evenodd;stroke:none"
       id="path975" /><g
       id="g977"
       transform="scale(0.44022)"
       style="stroke-width:1.70369365;stroke-miterlimit:2.61310005;stroke-dasharray:none;fill:none;fill-opacity:1;stroke:none"><path
         d="m 221.5517,69.5889 18.4107,45.5674 5.9046,-2.3856 -16.1686,-40.0204 15.6858,-6.338 -2.2408,-5.5474 z"
         style="fill:none;stroke:none;stroke-width:1.70369365;stroke-linecap:butt;stroke-linejoin:miter;stroke-miterlimit:2.61310005;stroke-dasharray:none;stroke-opacity:1;fill-opacity:1"
         id="path979" /></g><path
       d="m 113.002,25.1311 5.5996,20.8987 2.7082,-0.7259 -5.5998,-20.8982 z"
       style="fill:#231f20;fill-opacity:1;fill-rule:evenodd;stroke:none"
       id="path981" /><g
       id="g983"
       transform="scale(0.44022)"
       style="stroke-width:0;stroke-miterlimit:2.61310005;stroke-dasharray:none;fill:none;fill-opacity:1;stroke:none"><path
         d="m 256.6925,57.0872 12.7199,47.473 6.1517,-1.649 -12.7204,-47.4718 z"
         style="fill:none;stroke:none;stroke-width:0;stroke-linecap:butt;stroke-linejoin:miter;stroke-miterlimit:2.61310005;stroke-dasharray:none;stroke-opacity:1;fill-opacity:1"
         id="path985" /></g><path
       d="m 124.4849,22.216 1.8853,21.5529 2.6311,-0.2296 9.1514,-15.8159 c 0.2585,-0.43 0.4955,-0.8946 0.7106,-1.3946 0.2152,-0.5001 0.413,-1.0401 0.5939,-1.62 -0.1176,0.6667 -0.1964,1.2937 -0.2378,1.8799 -0.0411,0.587 -0.0411,1.1137 -3e-4,1.582 l 1.2572,14.3643 2.7365,-0.2393 -1.8859,-21.5532 -2.2861,0.2001 -9.5621,16.5178 c -0.3529,0.614 -0.6081,1.1103 -0.7648,1.4899 -0.1562,0.379 -0.2778,0.762 -0.3645,1.1492 0.0912,-0.7577 0.1448,-1.4587 0.1624,-2.1033 0.0173,-0.6444 0.002,-1.247 -0.0474,-1.8071 l -1.2432,-14.2127 z"
       style="fill:#231f20;fill-opacity:1;fill-rule:evenodd;stroke:none"
       id="path987" /><g
       id="g989"
       transform="scale(0.44022)"
       style="stroke-width:1.70369365;stroke-miterlimit:2.61310005;stroke-dasharray:none;fill:none;fill-opacity:1;stroke:none"><path
         d="m 282.7766,50.4652 4.2826,48.9591 5.9768,-0.5215 20.7882,-35.9269 c 0.587,-0.9768 1.1253,-2.0324 1.6143,-3.1683 0.4887,-1.1358 0.938,-2.3624 1.349,-3.6799 -0.2673,1.5145 -0.4464,2.9389 -0.5403,4.2704 -0.0935,1.3337 -0.0935,2.5299 -8e-4,3.5937 l 2.8559,32.6296 6.2164,-0.5434 -4.284,-48.96 -5.1931,0.4547 -21.721,37.5214 c -0.802,1.3946 -1.3814,2.5222 -1.7374,3.3843 -0.3549,0.8611 -0.631,1.7308 -0.828,2.6104 0.2072,-1.7209 0.3288,-3.3134 0.3688,-4.7778 0.0394,-1.4635 0.005,-2.8324 -0.1074,-4.1049 l -2.8242,-32.2849 z"
         style="fill:none;stroke:none;stroke-width:1.70369365;stroke-linecap:butt;stroke-linejoin:miter;stroke-miterlimit:2.61310005;stroke-dasharray:none;stroke-opacity:1;fill-opacity:1"
         id="path991" /></g><path
       d="m 194.4975,42.6779 8.3818,5.2375 c -0.8104,0.9837 -1.8063,1.5687 -2.9877,1.755 -1.1815,0.1868 -2.3191,-0.0621 -3.4135,-0.7461 -1.1098,-0.6931 -1.8499,-1.626 -2.2201,-2.7987 -0.3702,-1.1718 -0.2906,-2.3215 0.2395,-3.4477 z m 1.1222,-1.77 c 0.7926,-1.1123 1.8298,-1.7677 3.1114,-1.9661 1.2815,-0.199 2.5551,0.0975 3.8211,0.8884 0.8127,0.5079 1.4632,1.1537 1.9516,1.9372 0.4881,0.7837 0.8153,1.6951 0.9811,2.7337 l 2.4117,-0.2869 c -0.2194,-1.4414 -0.6684,-2.6844 -1.3476,-3.7284 -0.6792,-1.0443 -1.6208,-1.9426 -2.825,-2.6952 -0.9927,-0.6199 -2.0316,-1.0193 -3.1161,-1.197 -1.0843,-0.178 -2.143,-0.1276 -3.1762,0.1502 -0.9057,0.2489 -1.7434,0.6676 -2.5138,1.2566 -0.7699,0.589 -1.419,1.3054 -1.9463,2.1492 -1.2503,2.0007 -1.6625,3.9918 -1.2376,5.9735 0.4246,1.9825 1.6027,3.577 3.5343,4.7837 1.97,1.2311 3.9744,1.5682 6.0134,1.0112 2.0386,-0.5571 3.7312,-1.914 5.0794,-4.0706 l 0.102,-0.1636 z"
       style="fill:#231f20;fill-opacity:1;fill-rule:evenodd;stroke:none"
       id="path993" /><g
       id="g995"
       transform="scale(0.44022)"
       style="stroke-width:1.70369365;stroke-miterlimit:2.61310005;stroke-dasharray:none;fill:none;fill-opacity:1;stroke:none"><path
         d="m 441.8155,96.946 19.0398,11.8976 c -1.8408,2.2343 -4.1029,3.5631 -6.7867,3.9864 -2.6839,0.4243 -5.2679,-0.1412 -7.7539,-1.6949 -2.5212,-1.5743 -4.2024,-3.6935 -5.0431,-6.3572 -0.8411,-2.6621 -0.6602,-5.2736 0.5439,-7.8319 z m 2.5492,-4.0206 c 1.8006,-2.5268 4.1565,-4.0156 7.0676,-4.4663 2.9112,-0.4519 5.8043,0.2217 8.68,2.018 1.8462,1.154 3.3239,2.6209 4.4334,4.4005 1.1086,1.7804 1.8519,3.8506 2.2286,6.2098 l 5.4782,-0.6514 c -0.4983,-3.2743 -1.5182,-6.0979 -3.0611,-8.4693 -1.5429,-2.3723 -3.6819,-4.4127 -6.4171,-6.1226 -2.2549,-1.4079 -4.6151,-2.3153 -7.0786,-2.719 -2.4631,-0.4045 -4.868,-0.29 -7.2151,0.3413 -2.0571,0.5653 -3.96,1.5163 -5.7101,2.8542 -1.749,1.3383 -3.2235,2.9654 -4.4212,4.8824 -2.8403,4.5445 -3.7766,9.0675 -2.8111,13.5689 0.9644,4.5037 3.6405,8.1255 8.0283,10.8666 4.475,2.7967 9.0281,3.5623 13.6599,2.2969 4.6309,-1.2651 8.4756,-4.3475 11.5381,-9.2466 l 0.2319,-0.3713 z"
         style="fill:none;stroke:none;stroke-width:1.70369365;stroke-linecap:butt;stroke-linejoin:miter;stroke-miterlimit:2.61310005;stroke-dasharray:none;stroke-opacity:1;fill-opacity:1"
         id="path997" /></g><path
       d="m 214.0118,47.2839 c -0.3198,0.3815 -0.455,0.8189 -0.4057,1.3121 0.0499,0.493 0.2656,0.9 0.6469,1.2198 0.3886,0.3262 0.8266,0.4711 1.3147,0.4351 0.4879,-0.036 0.8946,-0.2483 1.2203,-0.6369 0.3144,-0.3745 0.4496,-0.815 0.4051,-1.3218 -0.0442,-0.5063 -0.254,-0.9171 -0.6282,-1.2314 -0.3741,-0.3141 -0.8166,-0.4476 -1.3263,-0.3994 -0.5099,0.0479 -0.9184,0.2551 -1.2268,0.6225"
       style="fill:#231f20;fill-opacity:1;fill-rule:evenodd;stroke:none"
       id="path999" /><g
       id="g1001"
       transform="scale(0.44022)"
       style="stroke-width:1.70369365;stroke-miterlimit:2.61310005;stroke-dasharray:none;fill:none;fill-opacity:1;stroke:none"><path
         d="m 486.1437,107.409 c -0.7262,0.8665 -1.0335,1.8601 -0.9215,2.9806 0.1134,1.1197 0.6035,2.0444 1.4695,2.7706 0.8827,0.7412 1.8776,1.0704 2.9865,0.9884 1.1081,-0.0816 2.0322,-0.5641 2.772,-1.4468 0.7141,-0.8507 1.0211,-1.8513 0.9202,-3.0027 -0.1007,-1.15 -0.5772,-2.0829 -1.427,-2.797 -0.8501,-0.7134 -1.855,-1.0167 -3.0129,-0.9073 -1.1583,0.1088 -2.0863,0.5797 -2.7868,1.4142 z"
         style="fill:none;stroke:none;stroke-width:1.70369365;stroke-linecap:butt;stroke-linejoin:miter;stroke-miterlimit:2.61310005;stroke-dasharray:none;stroke-opacity:1;fill-opacity:1"
         id="path1003" /></g><path
       d="m 228.7627,59.3606 -1.5911,-1.7668 -21.4188,8.5453 1.991,2.2116 14.4907,-6.0333 0.2911,-0.1315 c 1.4015,-0.5925 2.4427,-1.0956 3.1238,-1.5103 -0.5899,0.7914 -1.2452,1.847 -1.9669,3.1666 l -0.0222,0.0382 -7.5435,13.7696 1.9335,2.1475 z"
       style="fill:#231f20;fill-opacity:1;fill-rule:evenodd;stroke:none"
       id="path1005" /><g
       id="g1007"
       transform="scale(0.44022)"
       style="stroke-width:1.70369365;stroke-miterlimit:2.61310005;stroke-dasharray:none;fill:none;fill-opacity:1;stroke:none"><path
         d="m 519.6515,134.8421 -3.6142,-4.0136 -48.6547,19.4114 4.523,5.0238 32.9167,-13.7052 0.6614,-0.2988 c 3.1833,-1.3456 5.5485,-2.4885 7.0956,-3.4307 -1.3399,1.798 -2.8287,4.1958 -4.4679,7.1932 l -0.0502,0.087 -17.1357,31.2786 4.392,4.8782 z"
         style="fill:none;stroke:none;stroke-width:1.70369365;stroke-linecap:butt;stroke-linejoin:miter;stroke-miterlimit:2.61310005;stroke-dasharray:none;stroke-opacity:1;fill-opacity:1"
         id="path1009" /></g><path
       d="m 233.0821,67.026 c -0.4028,0.2929 -0.6397,0.6843 -0.7106,1.1756 -0.0709,0.4904 0.0397,0.9371 0.3325,1.3399 0.2985,0.4105 0.6885,0.6568 1.1704,0.7401 0.4822,0.0828 0.9281,-0.0241 1.3383,-0.3225 0.396,-0.2875 0.6335,-0.6826 0.7129,-1.1849 0.0796,-0.502 -0.0247,-0.9516 -0.3118,-1.3471 -0.2878,-0.3951 -0.684,-0.6312 -1.1897,-0.708 -0.5069,-0.0771 -0.9542,0.0258 -1.342,0.3069"
       style="fill:#231f20;fill-opacity:1;fill-rule:evenodd;stroke:none"
       id="path1011" /><g
       id="g1013"
       transform="scale(0.44022)"
       style="stroke-width:1.70369365;stroke-miterlimit:2.61310005;stroke-dasharray:none;fill:none;fill-opacity:1;stroke:none"><path
         d="m 529.4633,152.2548 c -0.915,0.665 -1.4533,1.5542 -1.6143,2.6702 -0.1607,1.114 0.0901,2.1288 0.7554,3.0439 0.6781,0.9323 1.5642,1.4918 2.6587,1.6812 1.0953,0.1879 2.1081,-0.0547 3.0398,-0.7328 0.8997,-0.6531 1.4392,-1.5505 1.6195,-2.6918 0.1811,-1.1403 -0.0559,-2.1614 -0.7081,-3.0597 -0.6537,-0.8977 -1.554,-1.434 -2.7026,-1.6086 -1.1514,-0.1749 -2.1674,0.0586 -3.0484,0.6976 z"
         style="fill:none;stroke:none;stroke-width:1.70369365;stroke-linecap:butt;stroke-linejoin:miter;stroke-miterlimit:2.61310005;stroke-dasharray:none;stroke-opacity:1;fill-opacity:1"
         id="path1015" /></g><path
       d="m 127.6302,135.5706 c 0,8.2049 6.6509,14.8558 14.8558,14.8558 8.2049,0 14.8561,-6.6509 14.8561,-14.8558 0,-8.2046 -6.6512,-14.8555 -14.8561,-14.8555 -8.2049,0 -14.8558,6.6509 -14.8558,14.8555"
       style="fill:#254aa5;fill-opacity:1;fill-rule:evenodd;stroke:none"
       id="path1017" /><path
       d="m 111.5597,199.2932 12.3293,9.4056 c 0,0 0,-20.4378 0,-29.848 0.0406,-7.0991 0.2433,-11.1123 -6.8153,-17.4413 -6.1622,-6.0006 -17.5187,-16.9917 -17.5187,-16.9917 l -4.748,13.8697 c 0,0 8.843,8.2749 13.4626,12.6385 3.9795,4.1953 3.2496,6.2629 3.2901,11.8579 0,6.4911 0,16.5093 0,16.5093"
       style="fill:#254aa5;fill-opacity:1;fill-rule:evenodd;stroke:none"
       id="path1019" /><path
       d="m 126.3583,210.7151 13.0306,10.1982 c 0,0 0,-30.1932 0,-44.0955 0.0598,-10.4873 0.3597,-16.4171 -10.0692,-25.7672 -8.9144,-9.165 -24.1135,-24.1143 -24.1135,-24.1143 l -5.0763,14.5105 c 0,0 12.4481,11.9319 19.2725,18.3779 8.039,6.7139 7.0322,14.4879 6.9559,22.7197 0,9.5887 0,28.1707 0,28.1707"
       style="fill:#ed1c24;fill-opacity:1;fill-rule:evenodd;stroke:none"
       id="path1021" /><path
       d="m 173.7113,199.2932 -12.3284,9.4056 c 0,0 0,-20.4378 0,-29.848 -0.0408,-7.0991 -0.2435,-11.1123 6.8151,-17.4413 6.1622,-6.0006 17.5186,-16.9917 17.5186,-16.9917 l 4.7475,13.8697 c 0,0 -8.8424,8.2749 -13.462,12.6385 -3.9796,4.1953 -3.2502,6.2629 -3.2908,11.8579 0,6.4911 0,16.5093 0,16.5093"
       style="fill:#254aa5;fill-opacity:1;fill-rule:evenodd;stroke:none"
       id="path1023" /><path
       d="m 158.9134,210.7151 -13.0306,10.1982 c 0,0 0,-30.1932 -6e-4,-44.0955 -0.0592,-10.4873 -0.3591,-16.4171 10.0692,-25.7672 8.9147,-9.165 24.1141,-24.1143 24.1141,-24.1143 l 5.0757,14.5105 c 0,0 -12.4475,11.9319 -19.2725,18.3779 -8.0382,6.7139 -7.0316,14.4879 -6.9553,22.7197 0,9.5887 0,28.1707 0,28.1707"
       style="fill:#ed1c24;fill-opacity:1;fill-rule:evenodd;stroke:none"
       id="path1025" /><path
       d="m 135.6766,94.5485 v -9.7813 h -7.3142 v 9.8252 c 0,1.3825 -0.1743,2.3865 -0.5238,3.0121 -0.3348,0.612 -0.7926,1.0777 -1.3751,1.3978 -0.5973,0.335 -1.2447,0.5023 -1.9435,0.5023 -1.0913,0 -2.0228,-0.3855 -2.7946,-1.1569 -0.7714,-0.8007 -1.1574,-1.7543 -1.1574,-2.8607 0,-1.1058 0.3937,-2.0301 1.18,-2.7725 0.7708,-0.7572 1.7317,-1.1353 2.8817,-1.1353 0.6835,0 1.4843,0.1672 2.4013,0.5017 v -7.4886 c -0.8439,-0.1887 -1.6226,-0.2834 -2.3364,-0.2834 -2.0522,0 -3.9583,0.4949 -5.72,1.4848 -1.7756,0.9898 -3.1586,2.336 -4.1482,4.0388 -1.0043,1.7027 -1.5066,3.5807 -1.5066,5.6335 0,2.0373 0.5023,3.9297 1.5066,5.6761 0.9896,1.7314 2.336,3.1 4.0394,4.1046 1.6886,1.0043 3.5512,1.5066 5.5896,1.5066 2.0517,0 3.9368,-0.4878 5.654,-1.4632 1.703,-0.9751 3.064,-2.3219 4.0827,-4.0388 0.9896,-1.7178 1.4845,-3.5737 1.4845,-5.5673 z"
       style="fill:#254aa5;fill-opacity:1;fill-rule:evenodd;stroke:none"
       id="path1027" /><path
       d="m 144.9618,84.7672 h -7.2927 v 11.1351 c 0,1.2518 0.1162,2.3944 0.3495,3.4277 0.2469,1.106 0.6109,2.0451 1.0916,2.8162 0.5244,0.8444 1.1569,1.5942 1.899,2.2487 1.8051,1.5865 3.9807,2.3794 6.5287,2.3794 0.2325,0 0.567,-0.0221 1.0046,-0.0649 v -7.4013 c -0.4376,0.1454 -0.8155,0.218 -1.1358,0.218 -1.0627,0 -1.7904,-0.5165 -2.183,-1.5505 -0.1749,-0.4357 -0.2619,-1.2805 -0.2619,-2.5322 z"
       style="fill:#254aa5;fill-opacity:1;fill-rule:evenodd;stroke:none"
       id="path1029" /><path
       d="m 200.0707,94.5485 v -9.7813 h -7.3148 v 9.8252 c 0,1.3825 -0.1746,2.3865 -0.5238,3.0121 -0.3345,0.612 -0.7929,1.0777 -1.3748,1.3978 -0.5973,0.335 -1.2456,0.5023 -1.944,0.5023 -1.0914,0 -2.0226,-0.3855 -2.7947,-1.1569 -0.7713,-0.8007 -1.1563,-1.7543 -1.1563,-2.8607 0,-1.1058 0.3926,-2.0301 1.179,-2.7725 0.7713,-0.7572 1.7316,-1.1353 2.8819,-1.1353 0.6832,0 1.484,0.1672 2.4016,0.5017 v -7.4886 c -0.8445,-0.1887 -1.6232,-0.2834 -2.3369,-0.2834 -2.0517,0 -3.9583,0.4949 -5.7198,1.4848 -1.7759,0.9898 -3.1586,2.336 -4.1485,4.0388 -1.0043,1.7027 -1.506,3.5807 -1.506,5.6335 0,2.0373 0.5017,3.9297 1.506,5.6761 0.9899,1.7314 2.3366,3.1 4.0397,4.1046 1.6883,1.0043 3.5509,1.5066 5.5893,1.5066 2.0517,0 3.9368,-0.4878 5.6543,-1.4632 1.7031,-0.9751 3.0637,-2.3219 4.083,-4.0388 0.9896,-1.7178 1.4848,-3.5737 1.4848,-5.5673 z"
       style="fill:#254aa5;fill-opacity:1;fill-rule:evenodd;stroke:none"
       id="path1031" /><path
       d="m 85.2129,111.4852 h 9.2573 L 110.4508,95.4981 V 84.7483 h -8.8659 l -16.372,16.38 z"
       style="fill:#ed1c24;fill-opacity:1;fill-rule:evenodd;stroke:none"
       id="path1033" /><path
       d="M 95.4811,84.7483 H 85.2007 V 98.5779 L 95.4904,88.2882 Z"
       style="fill:#ed1c24;fill-opacity:1;fill-rule:evenodd;stroke:none"
       id="path1035" /><path
       d="m 100.1588,111.4787 h 10.2801 v -13.407 l -10.2897,10.2874 0.01,3.1196 z"
       style="fill:#ed1c24;fill-opacity:1;fill-rule:evenodd;stroke:none"
       id="path1037" /><path
       d="m 150.1387,106.7916 h 7.8066 c 0,0 6.6776,-14.3561 7.058,-15.1509 0.7268,1.5571 2.3746,4.8784 3.1706,6.5741 0.4495,1.1418 1.6262,4.2208 -4.2086,2.9752 0,0 -1.3394,-0.4498 -2.0061,1.2649 0.4014,2.8292 -1.4448,4.3367 -1.4448,4.3367 h 9.9311 c 3.1153,-0.1004 7.2859,-4.2866 4.7736,-10.2657 -0.4657,-1.1497 -4.4603,-10.6132 -5.523,-11.7776 0,0 -7.6862,0 -9.294,0 -0.6919,1.404 -10.2634,22.0433 -10.2634,22.0433"
       style="fill:#254aa5;fill-opacity:1;fill-rule:evenodd;stroke:none"
       id="path1039" /></g></svg>
